<?xml version="1.0" encoding="UTF-8"?>
<svg id="Layer_1" xmlns="http://www.w3.org/2000/svg" version="1.1" viewBox="0 0 171.36 307.2">
  <!-- Generator: Adobe Illustrator 30.3.0, SVG Export Plug-In . SVG Version: 2.1.3 Build 182)  -->
  <path d="M78.25,221.67c8.17,1.95,14.47-5.89,13.86-13.61-.23-4.25-1.53-13.17-2.31-17.4-21.35,4.2-40.34-16.24-36.99-37.26l5.5.03c-5.61,19.38,11.2,39.07,31.19,35.06-.36-2.21-1.47-8.81-1.62-10.94-11.28,3.61-16.13-3.32-11.96-13.73,0,0,3.17-7.07,3.17-7.07l-8.77-2.93c-3.17,3.05-7.26,6.57-10.72,9.31,0,0-.33.27-.33.27-.09.08-.24-.38-.24-.5,0,0,.02-2.97.02-2.97,1.45-1.19,6.87-5.55,8.11-6.77-11.41-2.72-23.89-1.43-34.32,3.6-9.8,4.26-12.53,16.33,1.72,14.72,6.13-.73,11.5-3.39,16.91-6.45l.74,3.32c-37.17,21.13-42.55-15.58-.61-17.99,5.5-.41,10.82.13,16.23,1.32.54.12,1.16-.06,1.51-.37,8.62-7.9,20.29-20,28.13-28.57,0,0,5.74-5.77,5.74-5.77,2.72-2.78,5.41-2.04,3.26,2.04-5.69,10.4-18.09,27.85-23.41,38.36,4.24,2.65,8.2,5.72,11.04,9.53,0,0-.93,1.29-.93,1.29-2.96-3.92-6.65-6.98-11.02-9.43-1.44,3.35-4.72,8.83-4.69,12.58-.08,5.39,7.47,5.28,10.99,3.59,6.67-2.8,15.4-7.41,21.95-10.44,10.71-4.67,22.04-10.59,33.98-7.82,2.74.62,5.18,1.95,6.83,4.22,1.33,1.82,1.15,5.41-.73,6.21-.31.13-1.02-.15-1.15-.43-.57-1.22,1.27-2.23.96-3.87-.51-2.71-4-4.48-6.82-4.98-10.59-2.08-20.68,2.79-29.99,7.3-6.77,3.34-16.6,8.51-23.51,11.65-.28,0,1.64,10.83,1.65,11.19,7.85-2.46,13.77-9.38,14.61-17.6l5.31-2.27c-.41,10.85-9.75,19.21-19.61,22.07.56,3.66,1.92,12.12,2.24,15.71,1.46,11.76-7.79,22.06-19.76,16.69-6.33-2.81-9.28-12.59-4.01-17.41,6.23-5.45,14.49,2.56,10.2,9.19-2.12,2.51-4.46,3.48-7.89,2.53.87,2.51,2.98,4.23,5.52,4.78ZM81.1,142.98c-2.25,2.34-7.18,7.37-9.49,9.57l8.24,2.88c6.36-11.56,15.89-24.77,23.37-35.72-3.62,2.96-6.77,6.95-10,10.31-3.63,3.94-8.42,9.05-12.12,12.96Z"/>
  <path d="M71.07,133.3l-3.52,3.7-4.41,5.68-3.24,6.11-6.17-.15c3.48-13.34,14.17-22.69,24.3-31.23-1.27-14.23-3.22-30.54,5.44-42.97,2.2-2.99,5.7-5.41,8.05-2.83,12.06,16.86,4.22,39.42-10.13,52.42l1.76,11.59-1.84,1.92c-.4-2.45-1.54-9.33-1.89-11.68-2.63,2.29-5.83,5.03-8.35,7.45ZM84.47,111.04c7.58-8.16,12.66-20.26,8.84-31.15-.77-2.13-2.28-3.97-4.09-3.32-9.69,7.06-10.91,27.5-8.87,38.76l4.12-4.28Z"/>
  <path d="M39.03,112.77c-10.89,12.13-16.33,27.12-15.79,43.45-.29.18-.68.37-1.02.5-1.97-30.21,20.55-58.56,50.11-64.13.16-.03.58.03.58.15v.81c-13.02,2.67-24.93,9.24-33.89,19.22Z"/>
  <path d="M145.69,152.71c-.15-26.29-18.89-50.61-44.13-57.76l.15-1.07c25.83,7.19,45.13,32.28,45.04,59.15l-1.06-.32Z"/>
  <path d="M98.08,213.85c23.68-5.9,43.46-26.11,46.91-50.83.31.08.7.27,1.03.5-4.3,25.56-22.56,44.87-47.72,51.31-.05-.09-.15-.55-.22-.98Z"/>
  <path d="M63.28,211.33l-.03,1.13c-15.84-5.88-28.9-17.89-35.73-33.4l1.24.17c6.67,14.64,19.46,26.5,34.52,32.11Z"/>
</svg>